<mxfile host="app.diagrams.net" modified="2022-07-20T06:03:48.014Z" agent="5.0 (Windows NT 10.0; Win64; x64) AppleWebKit/537.36 (KHTML, like Gecko) Chrome/103.0.0.0 Safari/537.36" etag="BDsd3-u07kl--wv5HiP8" version="20.1.1" type="github">
  <diagram id="Ry3u8iiea87AERFnvk9Z" name="Page-1">
    <mxGraphModel dx="1422" dy="706" grid="1" gridSize="10" guides="1" tooltips="1" connect="1" arrows="1" fold="1" page="1" pageScale="1" pageWidth="1169" pageHeight="827" math="0" shadow="0">
      <root>
        <mxCell id="0" />
        <mxCell id="1" parent="0" />
        <mxCell id="1gENSLPEwYm4UhBjL6Qf-1" value="" style="rounded=1;whiteSpace=wrap;html=1;shadow=0;labelBackgroundColor=default;sketch=0;fontFamily=Helvetica;fontSize=12;fontColor=#232F3E;strokeColor=#68B92E;fillColor=#FFFFFF;gradientColor=none;strokeWidth=3;dashed=1;" vertex="1" parent="1">
          <mxGeometry x="250" y="80" width="689.5" height="630" as="geometry" />
        </mxCell>
        <mxCell id="1gENSLPEwYm4UhBjL6Qf-2" value="" style="rounded=1;whiteSpace=wrap;html=1;shadow=0;labelBackgroundColor=default;sketch=0;fontFamily=Helvetica;fontSize=12;fontColor=#232F3E;strokeColor=#68B92E;fillColor=#FFFFFF;gradientColor=none;strokeWidth=3;" vertex="1" parent="1">
          <mxGeometry x="390" y="270" width="117" height="270" as="geometry" />
        </mxCell>
        <mxCell id="1gENSLPEwYm4UhBjL6Qf-4" value="" style="shape=image;verticalLabelPosition=bottom;labelBackgroundColor=default;verticalAlign=top;aspect=fixed;imageAspect=0;image=data:image/png,iVBORw0KGgoAAAANSUhEUgAAAHwAAAA/CAYAAAAi0qx8AAAAAXNSR0IArs4c6QAAAARnQU1BAACxjwv8YQUAAAAJcEhZcwAADsMAAA7DAcdvqGQAAAuBSURBVHhe7Z0JcBRVHodf9+vpyczkJAlJJIGEiAlHUigoC6KyBnGJ1+Iu64rrWeIurAe6suVSKuWBW+uyWqwWhSfrhbgqYJUaZKUUcVXwWAQxCYEcJpCEkIQcc/exv39PDzeYQEJmxv6qHq/7vTchme9dPdP9nsCiGF3XkxAKcFiIkCAIQgLOE+g4oPpTNV1J0XQ1mYvcKTAB+RLFLi5wBxMEHXkeTVO9KlM9uq54dIF1CrrYwbmtTRbsrfg5XYeEDoRK/B8VCN04jkqiQrimacMQkdiCgO4rVhSl2MZt+TKPS6V8VVM0v+pRfPDmCXZKPqWb45j5FTfzqQgKjo+IiTjJxeK4k9mNGEHCcThGmoPHqyijO6UE1c6dsihy4/0KKL69uqBVyqJjC06pElSiolWIothA+ZFMxAmH3CJEJYoenASRY2yinMdFKY7yugP7lWZ3LWtyV0tNnlrW7K5BqGV7PT9Qdr+T4cplmQgZzjzj2Dh35mkuOUmkfEULevF777KLjv/hdBMqwnrqESgvUhhw4RCcgagEXfB0/DKXyFJchifQqVZ3fKs1uqttJLUJUpshuDvQHnpRhJEopx6sAK5QZRiRPF6xSw4poPp220T7uyQfvcB69AJt5ssGhAERjj98qldxl+q6Ot1pS6Txl+1s/0Ypb/1cqmjbxKr3f2uUi3ZGpIxjhYMmsILUCSw/eayR5g52bHdKiatwSPI3GImnkdMmHC35WnR3N4iMX4xJlIyuWC1v/YKT4EoEH8bbWAYV25BfCPkUpzuH0tzDIwq8DNmvQ/7boZL9S78Kh+RJPtV7s020XSOJtoTvWjYGt7Z8bCPJLZ56s9RPE+r6CyC+ePBFbFTqJIz/gTYu2F5C1grI/ypUqu/pF+EQfSMuee7AZGscxmDvZ3vecXzZWMbafU1mCYtDSXdms3MzS9nEM67ypTmz4zDkbUTyUohfGSrRd/SZcEh2IJob1Pz34HLpjM2NZYFP6t+Qd+2nCatFTykYdB67IHsmG5c5jSlqcCcazRJM+JYiaGaRU6JPhEP2fLTohTrTHRvqV4ob6t/4yXfZp0pWfD67KOcaI6iauk8UxIfR4p8ys0+aUxIO0dcHNe8iG3fklFU/x9bXvsw8Cn0oZdFX0CXf1Nwb2SUIuM4vx1xoIVr7m2Z2rzkp4RA9Hi16CbqbSZ/tXhN4r3qZ3OZtNHMt+gO6tp8+fDabkHU5XdauQ9I9aPHbQ7k9p9fCIXsBatiiHW1fKqurlki1HdvMHIvTAV3bzzjrbiU3aYzEdEP6k2ZWj+ixcNSqsbhufAqtejJEs3U1L5o5FgPB5flz2GX5fyAvdB1/F8RXhXJOTI+Eo1XPQBe+oqZjq/Tvysel+s5yM8diIMlPPpvNLJivZicUdIgCnwXpH5hZx+VHhUP2n9CFL6ax+pXtC2Uz2SJCwOyd3TRmETs3q5Ra+xxIX2ZmHZMTCvcEu5c6JNecNVX/ZB/UvGCmWkQiV555uzGpg/RHIP1BM/kojivcq3Y/ESe67l6+bQHb3PiemWoRydAHNrNG3U/S74f0RWbyYRjf4x4JuvGFJPvV7Q9ZsqOIjQ1vsjcrHmcYgh+Fw3vN5MM4qoWj4C14wQsryx9j9ImZRfQxLe9mNmPEPGrpM9HS3zKTDQ5r4ZA9Smf6sg/rXrZkRzHrapazTxtWMVULPg+n2WayweHCdfXZuo7twtuV/zBTLKKV18sfZXu99fGKHnzOTDI4IBw14U4uSue/Vv6wZCZZRDFovGzF949wmyj/Am5vNJMPCkfzX/BR3Wv+3V07zBSLaIe+mv7v7tUsqPoeMJNCwlED7hVFafAHtcvtRqpFzPBh7UtMlhz5cDybzg3hOtNm13V8r3X4W+jUIoZoctewxu5qFtD8c+hchPkiUeBnra56ghslLGKONVVLmJ3HnQ3XOdTCS71Kt7eq/etQrkXM8d2+jXTzBN0iVUrCJ+9o/6rTyLGISWjGXtm6ScXh+ST8jFbvbuNRHovYpd3fZMM4PpyEZ7V5Gq2vPWOc/TQh19VsEp7ZEdjXJ7fAWkQug51DGRfkQSS8MUlOpdgihmnxNLCgHmgl0XvSnDnWvcUxTpI9nYlMaDBa+PjMS+mpEYsYpjh9ii5zRzUJ/1jmTutDlxjGJtpZgpxC9z5sEAVBeF/mdic9wmoRm4xJv4DugqHD90h4ha7r287OuMT68CVGKUq/kAVU32ZRFJvDs/NnL8yZmZjqGGKeWsQK2QkF9BgydetP07khHOafRivfWZo325qtxxj0EKIn2LUDjl+h83ALJxZPyp6RkJdUbJ5aRDsjUyey87IuYw4p/sB96geEowY8g1ZedlPRY7QAnUWUQ2vQXTfyQQVj92q4PXBH6qEtnGZyc9MdQ/QbRj9kde1RznWjFgbi5ZR2jN23mkkGRwqvxb9zJg75ZcK03JvNVIto44oz/8jGZ14qyzzuJrTuw9aFO0w4gQIr0bXPn3HWPPbzodeZqRbRAj1fVjr8tvCDhe+byQc4SjiBgovxggd+U/hn43kli+hgau4NxkOFcDcPDo/5FOkJnx7VNO0RdPP3r615nr1TdcrryVj0IzPROC9GjwzZ90H238zkozihcAI/4DZEz3zT/J/Ai1vvk1VdCWVYRAQOKYHdUvTX4Oi0yfQAyfWQ/Voo59j8qHAC0qdquvZqs7smcWXFY44dbf22UKBFL4Bk9tuRC3zxtpT9du64GrI/N7OOS4+EE5A+HOFJdPFXWl38wPPrgvmsZNjvWFALrJIE21zIbjazTkiPhYfBuH47id/jrlJX7XjSXt76o5XKog8pTp/CZoy4S01z5vi5IN0B0b1aXanXwglIp90J/o7WfsXXzesYLcpnPZPWv+QmFbHLhv8+OCb9Ahta9Rq06jshu9fLXZ6U8DAQfxXG9ge5yM/56IcVbH3dK6zVu8fMtegLMpzDjJUYJ2f/inmV7m/iuOsvEE0L850UpyQ8DM3kFS34kCTaMj/bvYZ9Uv8Gq+v83sy1OBloQf0pQ2cF6BOzgOr/wSbKD0D0y2b2SdMnwsOgxd+qaIF5Nm4fvbVlA/u04S22reUTM9eiJ4wdXMIuyr5GKUybIPkU91Y7dy6GaOOrzb6gT4WHoa4e0VyM8dPafc3K5sZ3pc2NZWxPd48WC/zJMTRxpLHO2s+yrgjGyyk0Rq/FGL0EoteaRfqMfhEeBuJHIZoV1Py3yDwua1f7FmXrvg1SZesmdPm9Xhc2pqD7Dmg7jOK0KWpu8hgeVP21kigvRxbtiLAzVKrv6VfhhwL50xFdC/mXQ35Kp79Vq2j7QqyAfNoSI9Z3S0hzZBuCaduLwkHn6WjJAuY9Taqmfihz+78geb1ZtF85bcIPBZO8cQglXYG2mQnyoHPQ9YsNuKyjzW7CFQBzAbN0dGLnDmM3I7obeOSgiWpmfB5XNUXBTPsL/O1r4+XkdyH5tG/fNCDCDwV/vEzycVjiUbqudtkS83Cpp1fv3yLQXmWhjelC8V5PXehFEYUQ2rwuvG+Zk/Yuy1fykouMxZE8wa5KkYtldsH5Pio2bVw3oM/xDbjwI0HXn4M3pQSVYHxA9Y5F4y/AEJBGeWghOiqBQMtYUAUwAioFVQif0r/bgdI2VBmQGdqMjuI82plIHewcxmmBW8KveFvQM+1E2S9xutkUHFFjVcQJPxaoBImIjL1HEQrRLZ6jM320g7uGiCI3nprBeKjjDdeNvUVVt0j7oPlVj7Ef2sF9SA/GxJH7jdJ9YAf2HqWYuzTaexTdMxqpZLxX1C0HNF8dZtK7MMnagt/hW0gN7z0a8ZuvRYXwE4HKMAIRVQSqFMbOwhQCqictoAZSdUFLFhl3CQJLFBh3coG7RIE7dBTSdc2t0g7DTPEwnXVqTHUjvx2XRG12ybUPErsgs4tiFO/AMe0sXI3jKIWx/wN4Zvc84klpVQAAAABJRU5ErkJggg==;strokeWidth=8;imageBorder=none;fontColor=default;" vertex="1" parent="1">
          <mxGeometry x="342" y="112.06" width="110" height="55.89" as="geometry" />
        </mxCell>
        <mxCell id="1gENSLPEwYm4UhBjL6Qf-5" value="Redis" style="shape=image;verticalLabelPosition=bottom;labelBackgroundColor=default;verticalAlign=top;aspect=fixed;imageAspect=0;image=data:image/png,iVBORw0KGgoAAAANSUhEUgAAAEMAAABDCAYAAADHyrhzAAAAAXNSR0IArs4c6QAAAARnQU1BAACxjwv8YQUAAAAJcEhZcwAADsMAAA7DAcdvqGQAAAoYSURBVHhe3ZwLkFdVHcfP/uURsQsSfx67JLgUisAi4mTRCvmIYIxmnGwGpgahcpAhKzPEdBpqHF0TRB0NwqSaEMc1aKoBS0QYIXup7CooLIjaLoUrLA+JwAV3/32/v3vu3fu///u+9/9n6eMcz+PePY/v/5xzzz3ndylTJSCXyw2A+wKClXBVNr+qrKysEtd6IPwu3AEXf1smk9kPv+gUTQw0cCTcFxGcgQZTiNggn7/CewZuA4TZIYndHVQ629nZuRjuHwgXBeS9C24JgqN1samRWs9ABe+Cdxd6QV8jJZ99RxtUy392q/fbDxW4js4O1b/3IHHna5+usnykGpu9UudQCAR5COXVwbXppEQkFgMi3AyPIgw3UgzwG6qdbX9Wrx/apnbCHWs/qK9E4yM9ylXNoMmqJjtFjRs0RfVB3A4EOQmPgtDljNR4xBYDItwAjyJMNFIMWo7vUnuPvqLW71uuTnd8oFPTgz3lmuFfVWOytTrFAKK0wLsPc8pKIyU6scSAEHdAhJ/oqHD41AH17Dur1Iv/+q1OKS4TBl+jpo+8SY3oN1anGECURyHId3Q0EpHFgBCPQYh5Oqo++PC/EOEXaiPc2aB22JdFlGyfYTpFBPkjvNkQ5YiREo7QYkAErg2egBDXGilKvY454TdN96tDJ0uyDPDla2MWqys/zpFrAEGa4FGQV4yUYEKJASE+C28NhKg2UpR6oeUp9XRT3kg560yr/oa6ftR3dUwEOQOPgjxtpPgTKIbuEX+xC7F2z1K1pXmNjnUvJg6ZqubW3Kt6ZnrrFBGlFoJw4eZLGDGeN4dGDv+tbLxV7Tj0glzrrgzvd4maO+5erFM+IXGI8TbaUAvXKgkeZLTvip4srTniXBCCtBzfrVbtuEMmd4I28NVgtUR88OwZECLv8ZlkaKyY+qoOhWfBpgk6FJ9LB1+t5k94WMekhzyG4TJfRwtwFQNC3AAh1ulo5MkyTuP9SCLMtSNmq69cvFDHRJBFEGSpjubhJcZ2iCErSz4+lzfcIulBuImQpCFp5TfrkjvV5y6YJWGIcQLehRDksCTYKBADQtwMIWRJyzFX9/eZgesIZ6XT6OJO7GXEyf/Oz9TLxEogyIMQ4/sSseEmRjPEkJeu37/5SODKMmklo2KWF7Wsy4Z8Xs27dJmOiSAXQ5C9OirkPU0ghPX2yXeNKEvsUghBzHKcvTGIxveeV7sP/03H0AvKyrjlkIclBpTKwrNu4EtXEHF/paTEFeTZt/PaNAc//iQdFuxiLIBasjHD1/BSvX2WEm4tvNz6Jx0T8t5u7cOE+5XC3iOh323OORpan9MhwWozETHQXarRK65gmDtU699azuD/Ja8e3KLePfGWhNHmCrT9OokAs2fM0L5s1UXdoYo6dpOStLydbdt0SLDaXiAG9yyjEHcyiwPLSKMc7snasIZKBhPnAHQX61zDcWMo7IIUSxR7vkmfXtyp5648QduHY6hwv0aVITATCfWM8KZlL3+dwVCwgs6KuYkRp/JB+ZjX4wpj3xlDh7gbC7AfUYxbIcZDTNzS8qRa27REbgiDmxgmbo2Ji1sZScWgEBSEQIzHIcY8irEEYtzOxN+9+bB67p1fyQ1h8BPDCz+RouSVVIyaQVPUgsselTDEeAZizOAEygNgwRxHUYjaA1h5L1dKHG0VDSgG9ziFOGKcqzjaKhok7hkkau9IShrlvd/eJgtMgmliKIbKeRkEUukZpRIkzXLs7YUYlVxn0FBEON3RrkPhsY/1YgrCvM3805pfOnIdOiT05DChhYxwfu/BOhQN+wRoVjotYZx5pTnR0uzBxgE+WrdiqExhbNlLc9W+Y41yJQyspFvlgoRI62+SUN5rgFp6lXHsgdFxGI/WLMWohxgzmbhqxyK1vXWj3BAGLzGcBDXUjbQb72RYxUXqh5PWShhi7IQY4ynGgxDje0xct2ep2hzhbMRsZLErbuInatQ6jM3WqlsmrpAwxNgIMaZzzqBFndA/5pxRbCiCXQg23Nn4qL3PMV/IvJk3gVbps8moRK1IFPxEMONmmlM0PyrLP6lDgnQIimG9s9NEiDZUcSiGIGaeThHcCLrupCY7WYeErfwfhkpmP8aMtYdOY7IoxP1lkuBVjr0eflxQMVoN6XuhhNH2o9BANkbZM8gG7YtVXRzcRAmqlB/m35p5pgnfWG1YbZcTNTxRxuOJ8hrDpz48oW7bkm9J5wUr7FXZJEIwTz8xgoTyqxdZ9Ok1qrp/jYTRM2ahZ4hlj3W8CEF2QRA5jPxpw7fUG20vSrofQYW6ESSSmZ+zwWH/jjj/1s7APlXqnsl5ZycVaDcPo61hQqzuQjvLsARV0gkr6OeKDU0UTNArNphCEEsMJP5SB8XglHaW3Qk3wdzSTNzSuHS4Ov+H/rn2BbsYTVBK9kIJbSuDMAuM2juKiV9dpld3tQlt5Vbfeh0V7MOEgtThJtpii+UtDU6DsAuSpihpCz1qwOXqU5XW4Rmp076FUwxa51s3hekdxN4l0xbFDZZnL9PELNftmr0t+MFXo1cUmEIWGKvgxjK4f0IYsdPgafyTu+6Wa2HwEsKtgm44G2TPzy8Pv/umVX9TXT+q68Ad7RsNMfboqEWBGASP2fkQ42c6GvkIwcRLmDDYG+TMx+uam1iXD52mbhrfdRYEIVxNmIirGASCPAJBvq2j6vHXFqqG9zbpWHy8BPL71U38xHX7+xH9xqiFV/xa9cj0kjiE4GddX5KIC55iEAjC57AczJ7pbFcPvDRHDE7PBT7as5+6HUIM7TtS4hCCi0paCR+TBBfyJlAXbkQmtM4XW2yaIFeVj5IL3RkK8ePaP9iFaIcIN/oJQXzFQJfi9xqzkRmt88UWm2rT8ra7wqHBOlb0+phOkafkbLjtOuqJ7zAxwXCxTupN1u15QG1ufkLHugecLOeOu8eaIwh+yB/gR71fR30JJQaBILRh4Mc3Rt8DW/fXq/rd9+nY2cXl8cmhwR5h7PqGILQYBAXwGG41Cpiqk2RCpZkk7SzPBlxZckE1ZqDYmwioIydLzhGBQ8NOJDFM0EtWoiB+wmlBg1PaWdK8sBTwpYvvGo4lNoXgE5A9wneydCOWGASC0KZjMQrN2zSlnWVj6ybVeHCzTkkX7kfwNdzx9ilACM8FVRhii0EgyEB4NLG+zUjpguaFtKqjjRjNo5LAPUtu1fEjX3OHyg6HLrw6CFGwxI5CIjFMIMpFEISm1nOMlHx42k1Rmo+/IeEul//VNo/8zE+/+Rk4t/O5i21u3jqBCPzHAihC4PdnJQeiTIJ7Cu44KhpIZ2dH7uip1lzbyX/nznSc1qnBIP/1cJ7L6m4HKnsd3Aq4Zt2G2CCPI3Cr4WYiGu9gJwSpDJMg0Ag+96bB0TCGlkLiY2gNhW+BhvLrIJ5u2f8xka0YBnkG38WiJGJ4gcafB0dhesIdQKOjW8ukhlL/A5uooe5chI1qAAAAAElFTkSuQmCC;fontColor=#68B92E;fontSize=14;fontStyle=1" vertex="1" parent="1">
          <mxGeometry x="548.75" y="106.51" width="67" height="67" as="geometry" />
        </mxCell>
        <mxCell id="1gENSLPEwYm4UhBjL6Qf-6" value="" style="endArrow=classic;html=1;rounded=0;fontColor=default;exitX=1;exitY=0.5;exitDx=0;exitDy=0;strokeColor=#68B92E;entryX=0;entryY=0.5;entryDx=0;entryDy=0;" edge="1" parent="1" source="1gENSLPEwYm4UhBjL6Qf-4" target="1gENSLPEwYm4UhBjL6Qf-5">
          <mxGeometry width="50" height="50" relative="1" as="geometry">
            <mxPoint x="402" y="420" as="sourcePoint" />
            <mxPoint x="602" y="220" as="targetPoint" />
          </mxGeometry>
        </mxCell>
        <mxCell id="1gENSLPEwYm4UhBjL6Qf-7" value="" style="endArrow=classic;html=1;rounded=0;fontColor=default;strokeColor=#68B92E;exitX=0.5;exitY=1;exitDx=0;exitDy=0;entryX=0.5;entryY=0;entryDx=0;entryDy=0;" edge="1" parent="1" source="1gENSLPEwYm4UhBjL6Qf-5" target="1gENSLPEwYm4UhBjL6Qf-2">
          <mxGeometry width="50" height="50" relative="1" as="geometry">
            <mxPoint x="536.25" y="173.5000000000001" as="sourcePoint" />
            <mxPoint x="536.9410000000003" y="225.49" as="targetPoint" />
          </mxGeometry>
        </mxCell>
        <mxCell id="1gENSLPEwYm4UhBjL6Qf-9" value="" style="shape=image;verticalLabelPosition=bottom;labelBackgroundColor=default;verticalAlign=top;aspect=fixed;imageAspect=0;image=data:image/png,iVBORw0KGgoAAAANSUhEUgAAAF4AAABeCAYAAACq0qNuAAAAAXNSR0IArs4c6QAAAARnQU1BAACxjwv8YQUAAAAJcEhZcwAADsMAAA7DAcdvqGQAAAxvSURBVHhe7Z0LcBXVGcfP3b17n3kD4RnCQwIopK2iweoMVNKqFRUrjvgCdGoftopTxxHE6bQVHUtrqZahVas8jAqtT1rlMVhgRKAQhg4GNQkQXpGEkBCS3Oe++v33nmQIed2b3L1JbvY3s7m7395cwv98++3Zs2f/18b6ILqup9MykVbzaDFeNV0dq+pqpo3ZvIJN8NpsgofimqapAY2pfoEJFyh2QbCJ5RQvpaUMrzabDUuQ1vsUfUJ4EjmFlhm0OkPTtVmiIF6JuKopem3gTKjKd0SsCZyWgoqfhVQfa361MYE57R7mEr3MZfca69nu0Wx4yjh5kHukhM8A9Dm7RMH+Ka3uoGUnNYRu7OhFek14ElqiZZ6iK/dLgvQDxKqbKoJf1e11lZ0vZpWN5eys/4Tx3u4g2uxsqHcMy0mbzPIyp7FJWdPDWe5hDlVTZTpi3qW3rBcEYWPk3Ykn4cKT2IUhLbhAsklzqSy4Dp3dIRdXb5HK64pZfegsf5c5ZHtyWV7W1WzasJvYRHqV1XCtXZDW0a43qREORt6VGBImPBXj2YouPyEJjpmnGkt9eys/8hZXbWYN4Vr+jsSCRkADTB9xa3CIJ8dFCbGBwi9TA+yOvMNcTBeeBJ9LJ8Un7IJ9+uGaz+RtJ4ukr2v38r19g6uG3ci+N/peNj7j2zgiN9I5YAUtOB+YhmnCk+B5lOHLKcNvP1i9Tf70RJF0tD6hR3PM5A+ZyW7IvZfKUAEaYBWJv5SWer47rpgiPIn+DP3Bz37TeCT8QfkKR8m5XXxP/+DaEbezORMWyV4pvYl6Q4vp//Iq3xU34io8ZckY6rq9Tb2G6RuPrLRtrnid7+l/OEQ3u+2yX7JZuffj/7WexH+AFoXv7jFxE56y/AZFkzdU+46nvVGy2HGm6Sjf07+ZPGg6e2jqC7JddJY6BfdcOvni4qzHxEV4Ev1hHI6o5au/WCLJWpjvSQ4Gu0exhVOfYzmpk3yS4LyLxN/Ed3WbHgvvlxtWuO2pj2+peIN9WP4SjyYnC6c8xwpGzEbpeZTEX8nD3aLbwlOWO6nXsp56LXPe+vJ3bNfp9/ie5Gb2+J+zW8b/DOKvIPF/xcMx0y3h6R+dRJfe7/jlC1e8/sViqbTuv3zPwABZj+ynK99NdOV7JzVAgO+KmpiFR6ZrurZX1oL5y/bMFWoD3/A9AwtcbD2c/6LscaR94hCdc3g4agT+GjUoL8j0gSw6OFr/P0a9NwkXiFQBXuDhqIlJeJxIUdNRXgay6M2U1e1nRYd/g9WnSPyfGMEoiVp4dBnRe8GJdKDV9M74vPIDtrni71h9hcQvNIJREJXwuDhCPx1dxoHSe4mFj8r/wg5UbWFhNfhP0mosD3dKl8JTK47BFSkujpK9n94TVpcsZWd8RzOCqu99HuqULoXH2Mu5wCkPrkh5yKIdVE1ma75YiuqQT8taHu6QToWnD3gGA16vHXrSk2zDAGZQ5atga0qeFqgszyft5vFwu3QoPP1iHn3As/86siqULANeiaDk3Gdsd+WH6HYvpzLdob6dZfxzVb7jTZsqXnPxbYso2XhkJdN0dSQJv4yH2tCu8JTtcynb575X+ocUHrKIgQuhGurpvIySs4S0zOfhVrQrPO6RHqrZ4etvd476EttPvo0pKiqtLopEWtNGeGqh2bgxvbVijZeHLLrJf04WiZT1D+F8yUMttJfxi76q3ePv6zem+wM4yVb7Tmi02ibrWwmPS15qocKtx9dgXqJFHNh+8i3U+kco63N4yOBS4e854ztW19fmvfRndp7awAJyE2p9q359i/AkuqQz/Z5dp97N4iGLOLG/apOoaOH5fNPgYuHn0VWqG9PqLOILNJVE5xQqN1fzUKtSM6+sbt+53prLmMyUny+mk+zxVuXGEJ6yPYVOAD/cVfnBYCNqEXcOVG8VVU25g2+2CI+HAhimSluYA7S1i9JY0noctptLzYwaf2WD2fPTBzJ42AJPuDQnebPwM0vrrC6kmWi6yo6cP4g6PxPbArVAOtX3q7+s3Z2GgIV5lJ3fZ1c0+ftYh/B4qs545sjCXCqbyqlb6RhO3UovSk2epqlaTx70soiOal+LxhMh/MT6cE1DZNvCTM76j/M1lmdk/Dn/6Zjn/lnEjqZrrLrJGK00Mj7nrO+E3dhjYTp1wTMQPgfCp/qVBmvqRoIIqk12RZezDOGDiq/XHzEfKARVH1NUOZNnfKMzErYwG/gwMJuWzjO+KRK1MB2YX4g2uwfCa3TlGolamA4cRwgNPxudotdSPkG47B6mM1uDIbzbbs1bShSU5EzTVJ8hvMeRFoqELcwGhkZ2UTpvCO8V0+RI2MJsXKKH2W1SHYSvyPbm4tUiAQz1jg1TZ+YYBC8d6s0VI2ELM5EEJ8t0DXXoul4G4ctSHYMy4OFlYS7wSOOUGhmPtYuCFiZBlcV4pVJThnl9hvBwq7Mwl5zUSSysho6R5jKED1LN2XF51rXWuIHJTMwqUCTBsQXrRm+GxN85adB0a4TSRHCROiZ9Ck6khslcczdyR5pzUGq2ZzTftIg3EzKn8TW2Ez+ahd9J5SaUl3UN37SIN/C4UbTQYUEQqrHdXGpQZt4vGD67z5kfJwuZzqGyaHP8g2+2ZDxYf1nmd1xwILWIL/lDZrBUZxZur8LN1aBFeDoENmqaWg3bV4v4Ak1DSmAvadzi4HdxxlPJEd6+btSPTHEWHahkuLLZVcNu0h2iaw0PGbQSnngzyzUsA167FvHhuyPmMF3XMG+pKBKJ0Ep4OhQOUu9mQ2HufGt8Pg5g/GtW7gOKYBNfJG19PGxwacaDl6ij74TBsUXPuCH3PuaK3N1rY/TTRnhqmT2U9RsLxyywupY9BNkeUgN/JU3bPFjWXsajX79iQuaVLrhKW3SP2y57lHntGZpL9Pyeh1rRkfA7KOtXwcobrtIWsTEqdSK7edyPmSjYn6Jsr+ThVrQrPCDxl3qljEZYeVvExpwJj8kBxXeIRP8zD7WhM+HrRUFcAv90WHlbRMf1o+5kVwy+XqIS8zgPtUuHwgMS/1UqOevhnw4rb4vOmZRVwO67/NcsqPj+RNm+nYfbpcsZZCS8XVZDxScbv/rWH/ct4FGLSxnkHsmevGadRoJuS3cN6fIKtNOMB5T1il1w3D069fJGmNdbtA/ctelkeizNOfhWHuqULoUHdNiU2gXp7oLhsw3/dIvWLJiyDPdTgylSxq2UqFH5REYlPCDxN1HZeRQD+gUjomrUAcEt43+KL/FiDtEFA72vebhLohYekPgrSfwVC6mF4Z8+0Llm+C1UAR5hPrke/fWPeTgqujU9O6yEPvHLDYWrS/BtCft5dGAB0R+c+jyj/vrfPFJKzPW3W8JrmuZWdPkdmNYXHf4t+7wyKh/jpAHlBZneXdFBjx5IoLKDbwp4Cl+09VH5y5FgkrNgyrNU028zykuKI3M5D8dMj4QHJD6+KeAV+KfDyhuu0skI+unoMo5Omxzg3wUVU02/lB4LD0j8wqDif6/aX5EGK2+4SicTuCJdOPV5Df103mWMuvfSEXERHlDdHwvTel3T8leXPC3AVToZwNgLhgECcuO/3VLqndH207sibsI3Qw2wlv64+XAZhas0DI77IxjaxSgjBrww9uKWUp7gu+JC3IUHJP48+KfDyhuu0jA47k/gJgbG0zG0i1FGquedDnh1B1OEB1T3YUK0jLJ/yZmmY+FtJ9Y6cBT0VXBjGvdIZ42eL6c4MjTBJi4mwTscT+8ppgnfDGU//NMXUQM8VOM/LX96Yp0E29e+QrpzCLtu5B1sVu582Sl6hLAWXIXbdSR6u3eO4oXpwjdDDQAr78eoAX4RkH3K/qqP7cXUBYUZZm+AWRTTht1oTDYi/CEtsMoteiF4QhxPEyZ8M9QAcJWeJ2vBBx2ie/JZ30m5uHqzBF9GWATCrc4MMD8dU6UxyIcJpJjLGFAa97vEFHzNchEJ3mrei9kkXPiLoUaA1y41Quguh+jKgS9j+fkDNhwFME6DhxfspOBsFAt4ug7PdGHJod4JnsTgDwWwsBr4WhJc79DqehK7DLHeoFeFvxg63MfRAjPMmWE1eLPT7h4S2cNYjf+UXBM4JYUUv+H3AusRuGDAkAHeAHhMHU9Mu8UUJdubq+GRRv6rxjNHuk3b7rC5ttLmThLbmJ/e2/QZ4S+FjgZ8VQasGXFuwCtKVCqJni0IcL3Q4ZOpqTq1gi5cwGPqeGKaziHHqAGRyaW0XkZLHxzDYOz/DSEa5l42wgEAAAAASUVORK5CYII=;" vertex="1" parent="1">
          <mxGeometry x="132" y="100" width="80" height="80" as="geometry" />
        </mxCell>
        <mxCell id="1gENSLPEwYm4UhBjL6Qf-12" value="" style="endArrow=classic;html=1;rounded=0;fontColor=default;exitX=1;exitY=0.5;exitDx=0;exitDy=0;strokeColor=#68B92E;" edge="1" parent="1" source="1gENSLPEwYm4UhBjL6Qf-9" target="1gENSLPEwYm4UhBjL6Qf-4">
          <mxGeometry width="50" height="50" relative="1" as="geometry">
            <mxPoint x="220" y="230.005" as="sourcePoint" />
            <mxPoint x="401.5" y="230" as="targetPoint" />
          </mxGeometry>
        </mxCell>
        <mxCell id="1gENSLPEwYm4UhBjL6Qf-16" value="K8s" style="shape=image;verticalLabelPosition=bottom;labelBackgroundColor=default;verticalAlign=top;aspect=fixed;imageAspect=0;image=data:image/png,iVBORw0KGgoAAAANSUhEUgAAAMgAAADICAYAAACtWK6eAAAAAXNSR0IArs4c6QAAAARnQU1BAACxjwv8YQUAAAAJcEhZcwAADsMAAA7DAcdvqGQAABxGSURBVHhe7Z1PlhU3lsZDkRjwDK+g8LgaG1bQyaTBI+wVgM/pU3iGWYHNCgwz49PngFdge2TTE6dX4LSze0zWCkyNDJgM1f0kBfkyXujqTygiFPH0O8fFi1eZ+eKF9En36l5dVYVCoVAoFAqFQqFQKBQKhUKhUCgUCoVCoVAoFAqFQqFQKBQKhUKhULj984eX7v744WVzWcgAYf4tzIgSRS3vVVLeEUJcolZ5Kk/Eg8cf/XZsfqQwE0UgM3L3x7/vV/XerbfC6CCr6vuqEfeLUOajCGQGXMLoAqFI2Xz7zc3/+968VZiIIpAJgTBEXX9Bj33fvBWIPJBN9e3jj46emjcKI1MEMgFqxhD1VzRbXDVvDUJKeUjTyqMilPEpAhmR1MLoUoQyPkUgicFS7cWXb66OKYwuRSjjUQSSCAjjwquTfVGJL2KEQZ38RSXEU/r3n7UQX5m3A5HH5KM8KEJJRxHIQLQwmjv0IG9HC4NG/6qqn24u5/7jpyufxwuF/m5VPXx84/f75rIQSRFIJNqUaj4XdXWbHmNw9LsVxsuL9cNvr//2wry9BYRCjYRZybkc3EcRyjCKQAJphUFP7l5Mp4UwqNM+eHWhfsoJo4ueUap7MWIEEErVCPJTStAxhCIQT5QwXssvqId7Bfe6xAqjSxHKtBSBOBgqDOqSxw2ZUkOF0eXuj1fukHmHoGMRyogUgVjYSiAMhGaMQ+qE36YWRpd//PQfH2tnPk4o1ANKYiRDEUiH0DypbeQBzRg/jC2MLkYoML2i0lhIzCUxsociEEMaYchHcycUqnyvvb3b1OPvmLeCgFBKYuQpOy8Q1aEGJhC+qer7/3Pjt0PzRhb897MPr54TMBHjhILvVRIjd1ggw/Ok8hRGl6FCgS9Fv7uzaSw7J5AhwsBSrRDV4RKE0aUIJY6dEIgO7sUnEC5ZGF2wOif2sGxdhOLDqgUCYQxNIBS1+P6NFI+WLowubUYAfT/yv2LYjcTIVQpECyN9AuFaKYmRdlYlkNNRcVgC4a4Io0sRyjarEEgrDPo2kyYQrpWS73XKogWihJFBAuFaKUJZqECGCoOabpQEwrWyy0JZlECWkkAYQrugUNfiQ9nIq0JUl2QlDqtG/ubaTDU1u5gYuQiBpMmTmj6B0IVJc3li63Bm0eB+bkupEErs0jmgQWoxiZFZCySNMOZPIOwjZMWIZpZPc4w3mPa5R53oY/NWEFooJ2R6/f+BeSs7shSIGVkHViBsaCrP88ErU1E0v4aI/k0lruUarFxzYmRWAlEj0g4kEH72vx88Ce9M8vjrG0fvm4ssWWO+VxYC2RVhtNz96cofMSajbMT7S7Db1ySU2QSig3u7l0CoOk8lfzWXQTSy+WRJG5nWkBg5i0CMDf5dtDAWnECol0rr78xlEOSsIznwS3O5GNq4FXW2z81bgSAxsr4+x+xZm38nRYqTq6HigDDQQSpZX/v6v37/dIniSMDiAm0AS+vI0fr6xu+ikTIiV0tclqKJWikbyiwCEaL+T/PSyaYwMHouMRq7yasLe9Erayd1vfhB4ZubRw9jhEIDqnefSck8Aqmkc/aAMPAQX16oyTFdvjBaVKBSVBE2tTxY06x5VijS3bZSRi75D2NyHwT26Luv5R/mcgs1Y6w8gVA5r7V8bi6d4JmQA/JJzgG1ofjke82xijf5DKJWrixQRzjEjIHRZa3iAGhk2ZxcN5dOMGCsWRxAzyhH76MPmLe2mMMPmVwgUtRWgYhaHK5ZGJugwyM6Tk/EOiJqMxNLu0cPzVvrR1Y/mFdbIKHTvJyMyQXCOVvyRP5iXu4E8Cmwr9tcbiOrLPPIxkQKZgZp5PpnEN5Br1dtRhTccKt8NLhegg9rLidhUoEgimxzwmBOrGWlqhCPNrHtZifnw47BpAKpZWNfqhOizB4FhawEY1bWky73TisQzslq5G/mVWHHkbKx+6ITO+rT+iBMsIdzzgq7BZttMHHAcDKBaOfKHgQakoJRWBecHwJHXSW7TsRkAkEJUPNyCwSHdiX+UfCE8UmnDBhOJhAhmezd4qAXOsgT+U/zcospExen80EY54p1ygo7yUld21eyJvRDJklWVBtmXjXPYT+at84w91ZSxGdqeUJ2rbgsZHM4Zd6TPq1WPDGXZ5hygxSewV5DpouobqE2F2Z1ZDbMtZvPmdQ6UZ+ZZAZ553V12SoO8j/mEgca4e6zD77CFljs8kMZHlHv/fzZsw8kskvNj60efNc92fyMoxConXQwV1ZKuJ89u/Lz1NFrYBx1ZqBiYmoJmUQgXIAQCYrm5aSYWe1n2zZQiEVVH1k5bbVE2wBGLbR/8bWc5TmoCpN2JlnJmsTEolH6O/qg3pUHMiNmKYqGmcMmjk2Qlp7S5IIwMaPCpFMLF8qk6V/AQPqNWsDQQVSaZZvj1PfCmb6bzFEwgt+/P00ZpEkEQtP0czVt9zCX/+FbegfV/x7f+P0TcxmF6oj6eIZbdGk1N/1RhdZ+oXlu0DkmQRVWRPUUtQDM1STguXF+yJ/nxXtjhwdGFwjXCCpB8ebRe+ZyMkI6Ruw9GlHA6b1HlwlEYSNeLCHlT+lzZilcxw+uaWf3Pkb3Qfaaxhr/QF0r83JS9IqVH6EdG8KA+aZMF3Jy6fdRwWUkcQCxr5zrWj7H54ZEmYWsvO/L4Q+MBpe4yG2+S8XoAhF7zAapmR56aFoLOp55aeWMMMi3GVcU/ajP9RQKZg8Iy1z6MMtKI5fESs949IDh+KtYXILiTAFC2K1YXjaXTtDxOJEglvHu6+bXuYTRpRWKbak6zLRCO8kXJ5X41lxOysuL8wYMRxUIRlVqLutIJuTeLDOIQtZBjnefSNpZA6YU9z3nQi1Vd+IYoeIAKBoxV8khM5j1OuIYjMZOXBxVIK4ExbkChACf7Sqa0GVTJHD0uTgKBxocq2OIlNO/1oIM+P+wvKpqR+F0poBZ7xSxD7MPS6YRM8dhDkUjOF917MRFat/x4BoEjZ/LkcG4T2XPSonVJg/HTx5IWQU63/qUq0bUZwrAsakmlmek7pcmML979ccI9wE57y9QxfGv89VxDlnW9Iy+tPpLIy8/jyoQGm2tAcJcK5UHxQYcoMO5KtDHCKRF3eugg2tO0eKQn+Z5Gpc9YIj7HjNUMKqJxVUwmdX/YEBH1qbXQFBeFIW2bxxdH8t+x9/F6IkSnurzIslZHGDOSiejCQSjG92+xYGSx3P6Hy6GiASdDbMjOu6U3xGfF+pTgdzFAVyrjpyvO5TRBMIlKM4V/wghSiQ0iuvSqfN0NjWj3Dh6P6Ryeu7ieAuzqY7djDeQ0QSinF4bC6lggg6HZEpzaUWNwvRzGMVzcGqx6uRb+1fQvZuXWTNXpZPxBML4H0upYKJsW51LZaU1UebaWGSjrf2L+zNv9UPO75g2fCrmqnQyikB08MaSYEYNtpQKJsjA5ZZSW3HkaqJgBjwR9XVOJHBy333dRB0JNyV6ZrZXOtE+b3pGEQiOWDMvt8CyZw5miAt98q599hgqDjQo4hncZyAIiU1b+LnYDgCRwC/iZxKxj6VUc5EvjB/CVu0cwCgC4ZymJTjo2rRSp+9aTQ8E1ELFgb+Ljnj3pyu/6m2+aicf3/FldQc/h5/H7yFuYv4fb9SAJBs2tUZU4smU9aZi4Kr/03McJXFxHIHUlT2DdwEVTC68au6wHVdUT0PTLyAMpKYg4OUUhQX8HoKK2CMRKhT4JAg8msst6G9fUkc2Z8wciYvJI+kYJVXKt2X0zf0wfNw/MnPp0VhjOH+er6/5monq7/0lv8JMYN5KBwn1z3fE/RCTFcmL9Iu9nUmZYeqw1Hzbh9sJOkbfSj6DoDy99QvMnKDog9oFyGTmyqbxXsqF36DENoY4AP1dDEYh/gmJ22pqLWEWmTpxMblAXEesmZf5wjnm2J/uucUTnRaldDixpQCdGp/jKxKImzO1ZCM/ztkX4XzYMY5oSy4QajC7/5H5EWvwE+j+7R2tOXlkXrG04rDNpKnB5ygnHitvHrw8L6zHvuFvzXVovw+cDwtxm5fJSC+QBR+xJkR927zcwnf2gM9B4sBedKc49NKrPXcKnwk/w1y68Qz6uWYRpNKbl9kxdeJiUoHoad4eIMzd/2DF7Tl7XHwtTXVCO3gW6PwqiMcd4llVx2+TED2Egg7iG/RzzCJXczWztP9nH1RSH9GWVCBcBRN66lnPHjpQZhW3V71eZaI5dhjib0EYqLWFIJ55m0UlIZJQsEqD3zdvWxD7PkvAqqMxosvazJqw0klSgXAVTHJPUGQzQpmzuzephXDlbR1iL7yvMLpgBn55QaWO8L8vKq9ttXME3lLA+SGp7zutD8JVMMk8QVHUnN3dOGcP7SD3xxdAK46hZiZG/sc3j7Dvg7XFfWaRuSuGxDJl4mKyQKEOsI1TJhJ/W9uW+oRTKaoXQtbkNKfzaVDR3bw8A3Vsry2d3PZiAD+ib+aI3XLret7e9/3TlV/hc5jLM6QKvOn2UyabMmExWKKTx/YHMFU522QzyBhHrOHBooqIiszXe7o8P/2ncph0gbQkqdpsDMHDd1L3wI1cZOvHmlU28DxRFcVcbqFnEQ9HmzUf3wxy1M+2n3hy2n71dxD3oOr5TLuk9J+SCST1EWvotMhdgtOLxjZvnwEjdmgkuQ+uFCmJ2xm7cWQPvHgjhdcKWChkIj2kT7COlD4dhTN9hzi8EKezmJ6s7iB1xDd+s8lUR7Sl80ESHrGGkedc1bgzXQk8fB2xHgIX7fbZ480cbi9E8tmjRc8ilbXioU9HacSe9fvFdjS0n6gbr2J6aD/Eb8ylN6xPm9APSeaDpEwiI7vcXgfJAsw4+p24jqgeaH9j+pQn4vwPbMXldhvG+iAt6Ix2X8RdkZ37fcx+dG9BKf0KKelZ2hcs+kBcCEvf5tIJ/73p7yXyQ5IIBCaOrZYUOq5edfGHc8CmxudBcxmyLoENFQiwDU7o4D6Oum2BYmpCF3L4BYY026CTmFjsbi4hglSsHcs8xBGA9X496n/Zv+tAUwGiwUhrLq1ASOblrODkLfPSD963TdKHkgiEGsJqq9LDD/I/uO26c+AzTUvmnA3b76PjYhWHMyUxOmKU9FiEGGRKCFFlIZDQbbNswJDZtBdCGoGwFRSbURzUqfAZgQlrB+37faza+O4TgUhUpm6nsvwm1MF77xEzw5BYw/T4LIicwgUMUTvZvBzEYIHo0a3fJFI2sOf+iZbcKp74TPvc4kD393WhBqzahJmRWC61zybWv+XZ4fIwaUPL0Wrx94sK5mXM8nGXwQJJfcQa96XnYK9542HD202U1mzATILVLlOowWdW2uLtbPLjlS/NWybJsh8f08lzhhwdPZiGrzqNnbg4WCBjHLGGba3mpTdY8cGKUcx/NDwzqx21e3R1HBPWmlS2peBQ4LdgNsGCxtAKMvwMiSMb+p8Z9x9WkMwf8Ibaj0v7tzPyEW2Dl3m5pTY8rNi6USoNwXcvN3VwpIObq2AwClvL6zfyweOPjt6O2H1gFHblRfnMGvg5+ufY9jz74P62z/OHyYdZzVyewee724DPBLPQXLKExkA24Z69mpU8lrk5Bs0guDmuMYcccaD2PzC73lrwM6jsYS6jYP0ej33OKqKNbF0LPuKgb3KgKorcPLoWUnza9rfROXz8OW4f95AMbMRvfNoPg9vL8yJ6cDPPvteUxLMZuvFrkEC43VvoMEMjmXjIpqR/T0Nj+pf38TNDV2q4h0xfxM/Rk1VUvhU+F98D54i0zws1t0xd3egOivvxei7M9xt6hgvaRplc2Dq8gX7W2nxLUfB7zEongwTCOkGJdhCq3XTUeXBIDKLa6DiIuOK9lGfn2R6yHoX89lZYRWYBAsDuwr7vge8dOptsclIzez0M3Aok3V2SM1xg4sF80u13ch3th1Kouv3izO8usqms8ZChlU4GCYQ6j90JGmEHIRoMHWfoiNMH59CyOyUNOqM3IOAG0+JC7Tx9KnY2Ybc/G+hnrKNr7AILB5b8x2g/NiN5YKWTYQJZcAWTLlwRA9dDDo1toLOHmBboVF5bbTdAfhdyxNhlXFHdMq+2kLKZ5Vz0GDhfCxbAkKXsaIG4A4TDp+cp0Z2VCzptm1l48DGxDfpZpJD84WO6ASwTq70xAatbGn0EdN/ncDXA0H65BWw50Hbc4DGk0km0QBwJiouaPVq4oBONtmeWQofGNiAojPIqnvHsg6/w97DiAtFh8MGspN7HMjp2UwaLQ9N+Tnf3HltggtpvDDN2VNg+x+zXcRAdB8HIaescQ9bP5wSdk99jID+FM47aVzTMogJ89NQ9B5gZcKYJjl2D6MzbWwyJX80FG8saEGeJnkHWcMRaF9dUjVkEhdkQAPMRBzqkeTkyfqk5uGd1/EJdW/eCL828amHvecC2gSiBcHs2lvqAW05EbQ1aaVG4d8rhGagYzc2j9zCbmrdHQQVKz9fXTLzI0+9jFhN84yeZ4fIh+5M83UQJxLFn43iJD7gFK0bdwFYImIE2YxswNbH+n3o2eStCEyjFfavttWxemQt5rAtBLBTGD4k9oi1KIKkrmOTGSWVf8mWxxDaw/o/ZJDbotwmEoVI4ZH2tL8CoS5TGCRJ1gpc8uI1R6STOB0lYwSRHQmcR1Wk9zklHh0ZEWQvFXhmxD/oMnNn+QOVr0azBLaNDkIhWh8wm+Psp9nDPS22//0g/JHgVCys9qhCYxUmFLdwdQZeI63ueIg9kU38aE/fBZ6jzEGV1SeyJv1Ejwje4rPaX6L38x1Uj/4W0kdhnihgIlnnNZS9qtpHNJ6Gb23LD1WYxlU6CBQJnx1bBRCMPkGdjLhYNYhPccijIfUkb8RRqZBzJYBV67t/BF1eKPWb50FkyepnXjtjHjZqLRYMR1WVqYfPSoBKaI0Kzx5fuKL88WLRjbjADgdf+kxCCZxDgUipYYrCpDx085E69bcln5lT37HGyLkwr+CpLdswBrBrXkXdY2IDvZi69iZpB9AfxTiYOpo9de84J+AhucQCaOc02WPPGLCg7/LX02425xJSSDnjeTnFIecglo3JEm1g4ThgfbC63wA2fq/yOA8sVbjtqH/Sdr5qq85ObmBAGPlc5qZ75Yfi5JZvD+M6oAewQB85+/yR2IIgWiPpA+mBzaUFc1mU5l0eoODaB+Ylynr7ZukPZSJz0SoHZBL+zVJGonDgmswHiQO7ZkMxyej7DWMNKT5ch4uiiZllZPUodY8DoiTNZyJR1HhrqQ6yNPhc+bYR4U18wNYTBAgFrctp9HjxGJr170Mc3OQUrYvS7v7y6UD+NmfLfigLHVUtJ/4bNFi4gkqoRj07q6lLOsawxnfIuSQQCuArnAJ0KOUq5PXjl1L5sPje1XKnD852+nbYhdp+BwQbEApGZ9AgyARpjBpw7RgfFoT5C4lD/CpVj/obsaZTTjBOFKnDxyJYObgP3SIJho/ZTA6ec/A70NWs7YdZGyk+KBYhkAkFHcy+Hus+rmBJtHiL1228m2BSHeUv9DWy3TT2ap0Dfb/WgNTPcQd5+kNuVQ5RdDWav5RPqtNZFCHxnlY6TSNTJAoVQq2xqRxwgH6ddLUGH7SPfEgeIyXuaBl1na9MGx+yt0+IDCZx5xgJOuUscQ53yLkkj6bgx+Brm0oLYh51vLmbDHPHmNerbxNGCwQGJiqrzzS4UU2/qxmmdrU1iRILnNHeb4fNd5qyeLdP6uclMrE18yobO6bRrc9C+tXYTlzj6UKaMkPdczyAtSJpsHviaQqHmFvwRcnqjtq0OZUqnvEvSGaQFoykazFz2MmekPbTKRaiQMUrjGaDAHZYaSWSjLEzg72IJHTOCnjH8/QTcI37XXLrRmcaTg8EMAWdWHHDKIyPlLkYRCECknW7dagviC88VaX958VxIh422Z2F6wQdAhUSkWiuxqORH362xZ8FsRv9LM4UWBf4u4kuxK4MhtQNE7AGpA2idcvp0bsUKq6ODy5faGMXEatFLcvK5ubQwT5Kf78GVY5oWqhJHXd+ym2LwJ6ofGlEf/HU+/VbmIFMz0aGYIbiW0SGOUPM3lNFmEJCz0w6b1bzkaU6iilL7gIaVJ/YzHFFzFjMQZogxRkj8Tb27kUeZMBfdtX5T4uOUUyM+GtuPHVUgQH0Bx8oOItfcSUljAIcODW8ue1GOXwbr/2OiloGZ9lHPSDaDK+iHAN+UxMGfk0/3PEX60ugCAbk67bDh+zoHpm6MrGOsiuQI2gcmVNtGynQhYeAZICI95SDh65QPPRPGl1F9kE20vZtnpB33hhwn3NtY9r4Nbs84nPE5kjzxPKacMVrwuT6R8ilTliYTCPBbe1/PnnYfchTIXOSY9DqJidUC1S8l0l6YFq9IOQ0YU4oDTCoQ4Ou0qyTAwk6Qk1PeZXKBAB+nHQlyc+/vLoxPbk55l1kEAnwi7Trvv7BWWqecWnu2SLmL2QSCL/ymWu+e9oIbV/o6QKR8qhWrPmYTCChO++7i5ZRX1cOpnfIuswoEFKd99/B2yjMI1M4uEFCc9t0BfseedNayms0p75KFQEBx2tfP20g5U6Zobqe8SzYC8XXa7z77YNHVGjdBhyH70XpWOZkZt9Y0a6rqMZk75V3ofvOCO620ZY69CamBHe7aRtqSS1WRIXidUzLSttkhZCcQ4LOnfcmdxqe20yZTJ+ilxmswIKdc+6J5kY2JtYlKvyZHzVz2s2in3bdivAYdSxWBWCBLc8q7ZCkQgH0I9OhW57Qrv0NU4Z2dZtSlDQhLdMq7ZCuQtTrt77yuLrOmBkvcUcZzsUSnvEu2AgE+kXY0wFTHDKRgr2mid02iTq95mT3GKWeDgTlEyl1kLRDgE2nH6shSIu1ShJ9ffkpcuaCpgVNObcYfH0FtOlYtq5RkLxCwJqf91YW96JU3IfeyX8UKccpz9Ts2WYRAAJx2OHTmcgvVICL/I9/QKZxi70UepyzKPBZLd8q7LEYg6oG6/BFqmEU47c6j67bxqV81NyZDd9FOeZfFCAQgMLgGpx0zgXfhOmIJziyeufNkrgV8jy6LEghYi9OOlArXrABzRNWmytyZ9XHKSRzfL8Ep75JlqokPOJPcZeumPGloLFQaRiVv44g1ao5942cdk714fFKJB7mbIyoY+EqlkTDL1/L4z/P1taX4HZssViCmYZ4r59wCnGFVPXFB4HstqSPB5+P8DuOULzaPbLECATCjnEdQz3jwy9qBU+70Oxaeeb04H2QTOO1oAHPZyxKc9iXi65QvfVvCogUCVAOsKNK+BNbslHdZtIm1yVqc9txZu1PeZfEzSMtaIu254xMpl02zmEi5i9UIZFWR9kzxiZSTbXV/6duDN1mNQEBx2scDz4yenTN9felOeZdVCQSggeAgmste4LQrR7PgReuUKzPVijxYg1PeZTVOepfitKdh15zyLqubQVqK056GXXPKu6x2BgFekXbszRCizCI9iEqSSSXY+NEaapRxrFogQDmXjoJlhTiUU77yk4BXa2K1+DjthRjW6ZR3Wf0M0uJy2gshrNcp77L6GaTF5bQX/Fi7U95lZwTiE2kvuCFz9cGaIuUudkYgQO9pz7/4Qa7AKf/m5pH3Xvo1sDM+yCYl9T2OlxfPHe6KaVUoFAqFQqFQKBQKhUKhUCgUCoVCoVAoFAqFQqFQKBQKhUKhUCgU5qWq/g0RQaaw+Ff8BgAAAABJRU5ErkJggg==;fontColor=#68B92E;fontStyle=1;fontSize=14;" vertex="1" parent="1">
          <mxGeometry x="850" y="89.5" width="65.5" height="65.5" as="geometry" />
        </mxCell>
        <mxCell id="1gENSLPEwYm4UhBjL6Qf-17" value="" style="endArrow=classic;html=1;rounded=0;fontColor=default;strokeColor=#68B92E;entryX=0.5;entryY=0;entryDx=0;entryDy=0;exitX=0.5;exitY=1;exitDx=0;exitDy=0;" edge="1" parent="1" target="1gENSLPEwYm4UhBjL6Qf-26" source="1gENSLPEwYm4UhBjL6Qf-2">
          <mxGeometry width="50" height="50" relative="1" as="geometry">
            <mxPoint x="538" y="350" as="sourcePoint" />
            <mxPoint x="540.2684563758389" y="390" as="targetPoint" />
          </mxGeometry>
        </mxCell>
        <mxCell id="1gENSLPEwYm4UhBjL6Qf-18" value="&lt;span style=&quot;font-size: 15px;&quot;&gt;Users&lt;/span&gt;" style="text;html=1;strokeColor=none;fillColor=#68B92E;align=center;verticalAlign=middle;whiteSpace=wrap;rounded=0;shadow=0;dashed=0;labelBackgroundColor=#68B92E;sketch=0;fontFamily=Helvetica;fontSize=12;fontColor=#FFFFFF;" vertex="1" parent="1">
          <mxGeometry x="143" y="125" width="60" height="30" as="geometry" />
        </mxCell>
        <mxCell id="1gENSLPEwYm4UhBjL6Qf-19" value="&lt;p&gt;&lt;font style=&quot;font-size: 15px;&quot;&gt;Webapp&lt;/font&gt;&lt;/p&gt;" style="text;html=1;strokeColor=none;fillColor=#68B92E;align=center;verticalAlign=middle;whiteSpace=wrap;rounded=0;shadow=0;dashed=0;labelBackgroundColor=#68B92E;sketch=0;fontFamily=Helvetica;fontSize=12;fontColor=#FFFFFF;" vertex="1" parent="1">
          <mxGeometry x="367" y="125" width="60" height="30" as="geometry" />
        </mxCell>
        <mxCell id="1gENSLPEwYm4UhBjL6Qf-20" value="&lt;b&gt;Deployment&lt;/b&gt;" style="text;html=1;align=center;verticalAlign=middle;resizable=0;points=[];autosize=1;strokeColor=none;fillColor=none;fontSize=14;fontFamily=Helvetica;fontColor=#68B92E;" vertex="1" parent="1">
          <mxGeometry x="399" y="270" width="100" height="30" as="geometry" />
        </mxCell>
        <mxCell id="1gENSLPEwYm4UhBjL6Qf-26" value="DB1" style="shape=image;verticalLabelPosition=bottom;labelBackgroundColor=default;verticalAlign=top;aspect=fixed;imageAspect=0;image=data:image/png,iVBORw0KGgoAAAANSUhEUgAAAEMAAABDCAYAAADHyrhzAAAAAXNSR0IArs4c6QAAAARnQU1BAACxjwv8YQUAAAAJcEhZcwAADsMAAA7DAcdvqGQAAAoYSURBVHhe3ZwLkFdVHcfP/uURsQsSfx67JLgUisAi4mTRCvmIYIxmnGwGpgahcpAhKzPEdBpqHF0TRB0NwqSaEMc1aKoBS0QYIXup7CooLIjaLoUrLA+JwAV3/32/v3vu3fu///u+9/9n6eMcz+PePY/v/5xzzz3ndylTJSCXyw2A+wKClXBVNr+qrKysEtd6IPwu3AEXf1smk9kPv+gUTQw0cCTcFxGcgQZTiNggn7/CewZuA4TZIYndHVQ629nZuRjuHwgXBeS9C24JgqN1samRWs9ABe+Cdxd6QV8jJZ99RxtUy392q/fbDxW4js4O1b/3IHHna5+usnykGpu9UudQCAR5COXVwbXppEQkFgMi3AyPIgw3UgzwG6qdbX9Wrx/apnbCHWs/qK9E4yM9ylXNoMmqJjtFjRs0RfVB3A4EOQmPgtDljNR4xBYDItwAjyJMNFIMWo7vUnuPvqLW71uuTnd8oFPTgz3lmuFfVWOytTrFAKK0wLsPc8pKIyU6scSAEHdAhJ/oqHD41AH17Dur1Iv/+q1OKS4TBl+jpo+8SY3oN1anGECURyHId3Q0EpHFgBCPQYh5Oqo++PC/EOEXaiPc2aB22JdFlGyfYTpFBPkjvNkQ5YiREo7QYkAErg2egBDXGilKvY454TdN96tDJ0uyDPDla2MWqys/zpFrAEGa4FGQV4yUYEKJASE+C28NhKg2UpR6oeUp9XRT3kg560yr/oa6ftR3dUwEOQOPgjxtpPgTKIbuEX+xC7F2z1K1pXmNjnUvJg6ZqubW3Kt6ZnrrFBGlFoJw4eZLGDGeN4dGDv+tbLxV7Tj0glzrrgzvd4maO+5erFM+IXGI8TbaUAvXKgkeZLTvip4srTniXBCCtBzfrVbtuEMmd4I28NVgtUR88OwZECLv8ZlkaKyY+qoOhWfBpgk6FJ9LB1+t5k94WMekhzyG4TJfRwtwFQNC3AAh1ulo5MkyTuP9SCLMtSNmq69cvFDHRJBFEGSpjubhJcZ2iCErSz4+lzfcIulBuImQpCFp5TfrkjvV5y6YJWGIcQLehRDksCTYKBADQtwMIWRJyzFX9/eZgesIZ6XT6OJO7GXEyf/Oz9TLxEogyIMQ4/sSseEmRjPEkJeu37/5SODKMmklo2KWF7Wsy4Z8Xs27dJmOiSAXQ5C9OirkPU0ghPX2yXeNKEvsUghBzHKcvTGIxveeV7sP/03H0AvKyrjlkIclBpTKwrNu4EtXEHF/paTEFeTZt/PaNAc//iQdFuxiLIBasjHD1/BSvX2WEm4tvNz6Jx0T8t5u7cOE+5XC3iOh323OORpan9MhwWozETHQXarRK65gmDtU699azuD/Ja8e3KLePfGWhNHmCrT9OokAs2fM0L5s1UXdoYo6dpOStLydbdt0SLDaXiAG9yyjEHcyiwPLSKMc7snasIZKBhPnAHQX61zDcWMo7IIUSxR7vkmfXtyp5648QduHY6hwv0aVITATCfWM8KZlL3+dwVCwgs6KuYkRp/JB+ZjX4wpj3xlDh7gbC7AfUYxbIcZDTNzS8qRa27REbgiDmxgmbo2Ji1sZScWgEBSEQIzHIcY8irEEYtzOxN+9+bB67p1fyQ1h8BPDCz+RouSVVIyaQVPUgsselTDEeAZizOAEygNgwRxHUYjaA1h5L1dKHG0VDSgG9ziFOGKcqzjaKhok7hkkau9IShrlvd/eJgtMgmliKIbKeRkEUukZpRIkzXLs7YUYlVxn0FBEON3RrkPhsY/1YgrCvM3805pfOnIdOiT05DChhYxwfu/BOhQN+wRoVjotYZx5pTnR0uzBxgE+WrdiqExhbNlLc9W+Y41yJQyspFvlgoRI62+SUN5rgFp6lXHsgdFxGI/WLMWohxgzmbhqxyK1vXWj3BAGLzGcBDXUjbQb72RYxUXqh5PWShhi7IQY4ynGgxDje0xct2ep2hzhbMRsZLErbuInatQ6jM3WqlsmrpAwxNgIMaZzzqBFndA/5pxRbCiCXQg23Nn4qL3PMV/IvJk3gVbps8moRK1IFPxEMONmmlM0PyrLP6lDgnQIimG9s9NEiDZUcSiGIGaeThHcCLrupCY7WYeErfwfhkpmP8aMtYdOY7IoxP1lkuBVjr0eflxQMVoN6XuhhNH2o9BANkbZM8gG7YtVXRzcRAmqlB/m35p5pgnfWG1YbZcTNTxRxuOJ8hrDpz48oW7bkm9J5wUr7FXZJEIwTz8xgoTyqxdZ9Ok1qrp/jYTRM2ahZ4hlj3W8CEF2QRA5jPxpw7fUG20vSrofQYW6ESSSmZ+zwWH/jjj/1s7APlXqnsl5ZycVaDcPo61hQqzuQjvLsARV0gkr6OeKDU0UTNArNphCEEsMJP5SB8XglHaW3Qk3wdzSTNzSuHS4Ov+H/rn2BbsYTVBK9kIJbSuDMAuM2juKiV9dpld3tQlt5Vbfeh0V7MOEgtThJtpii+UtDU6DsAuSpihpCz1qwOXqU5XW4Rmp076FUwxa51s3hekdxN4l0xbFDZZnL9PELNftmr0t+MFXo1cUmEIWGKvgxjK4f0IYsdPgafyTu+6Wa2HwEsKtgm44G2TPzy8Pv/umVX9TXT+q68Ad7RsNMfboqEWBGASP2fkQ42c6GvkIwcRLmDDYG+TMx+uam1iXD52mbhrfdRYEIVxNmIirGASCPAJBvq2j6vHXFqqG9zbpWHy8BPL71U38xHX7+xH9xqiFV/xa9cj0kjiE4GddX5KIC55iEAjC57AczJ7pbFcPvDRHDE7PBT7as5+6HUIM7TtS4hCCi0paCR+TBBfyJlAXbkQmtM4XW2yaIFeVj5IL3RkK8ePaP9iFaIcIN/oJQXzFQJfi9xqzkRmt88UWm2rT8ra7wqHBOlb0+phOkafkbLjtOuqJ7zAxwXCxTupN1u15QG1ufkLHugecLOeOu8eaIwh+yB/gR71fR30JJQaBILRh4Mc3Rt8DW/fXq/rd9+nY2cXl8cmhwR5h7PqGILQYBAXwGG41Cpiqk2RCpZkk7SzPBlxZckE1ZqDYmwioIydLzhGBQ8NOJDFM0EtWoiB+wmlBg1PaWdK8sBTwpYvvGo4lNoXgE5A9wneydCOWGASC0KZjMQrN2zSlnWVj6ybVeHCzTkkX7kfwNdzx9ilACM8FVRhii0EgyEB4NLG+zUjpguaFtKqjjRjNo5LAPUtu1fEjX3OHyg6HLrw6CFGwxI5CIjFMIMpFEISm1nOMlHx42k1Rmo+/IeEul//VNo/8zE+/+Rk4t/O5i21u3jqBCPzHAihC4PdnJQeiTIJ7Cu44KhpIZ2dH7uip1lzbyX/nznSc1qnBIP/1cJ7L6m4HKnsd3Aq4Zt2G2CCPI3Cr4WYiGu9gJwSpDJMg0Ag+96bB0TCGlkLiY2gNhW+BhvLrIJ5u2f8xka0YBnkG38WiJGJ4gcafB0dhesIdQKOjW8ukhlL/A5uooe5chI1qAAAAAElFTkSuQmCC;fontColor=#68B92E;fontSize=14;fontStyle=1" vertex="1" parent="1">
          <mxGeometry x="551" y="610" width="67" height="67" as="geometry" />
        </mxCell>
        <mxCell id="1gENSLPEwYm4UhBjL6Qf-28" value="" style="shape=image;verticalLabelPosition=bottom;labelBackgroundColor=default;verticalAlign=top;aspect=fixed;imageAspect=0;image=data:image/png,iVBORw0KGgoAAAANSUhEUgAAAHwAAAA/CAYAAAAi0qx8AAAAAXNSR0IArs4c6QAAAARnQU1BAACxjwv8YQUAAAAJcEhZcwAADsMAAA7DAcdvqGQAAAuBSURBVHhe7Z0JcBRVHodf9+vpyczkJAlJJIGEiAlHUigoC6KyBnGJ1+Iu64rrWeIurAe6suVSKuWBW+uyWqwWhSfrhbgqYJUaZKUUcVXwWAQxCYEcJpCEkIQcc/exv39PDzeYQEJmxv6qHq/7vTchme9dPdP9nsCiGF3XkxAKcFiIkCAIQgLOE+g4oPpTNV1J0XQ1mYvcKTAB+RLFLi5wBxMEHXkeTVO9KlM9uq54dIF1CrrYwbmtTRbsrfg5XYeEDoRK/B8VCN04jkqiQrimacMQkdiCgO4rVhSl2MZt+TKPS6V8VVM0v+pRfPDmCXZKPqWb45j5FTfzqQgKjo+IiTjJxeK4k9mNGEHCcThGmoPHqyijO6UE1c6dsihy4/0KKL69uqBVyqJjC06pElSiolWIothA+ZFMxAmH3CJEJYoenASRY2yinMdFKY7yugP7lWZ3LWtyV0tNnlrW7K5BqGV7PT9Qdr+T4cplmQgZzjzj2Dh35mkuOUmkfEULevF777KLjv/hdBMqwnrqESgvUhhw4RCcgagEXfB0/DKXyFJchifQqVZ3fKs1uqttJLUJUpshuDvQHnpRhJEopx6sAK5QZRiRPF6xSw4poPp220T7uyQfvcB69AJt5ssGhAERjj98qldxl+q6Ot1pS6Txl+1s/0Ypb/1cqmjbxKr3f2uUi3ZGpIxjhYMmsILUCSw/eayR5g52bHdKiatwSPI3GImnkdMmHC35WnR3N4iMX4xJlIyuWC1v/YKT4EoEH8bbWAYV25BfCPkUpzuH0tzDIwq8DNmvQ/7boZL9S78Kh+RJPtV7s020XSOJtoTvWjYGt7Z8bCPJLZ56s9RPE+r6CyC+ePBFbFTqJIz/gTYu2F5C1grI/ypUqu/pF+EQfSMuee7AZGscxmDvZ3vecXzZWMbafU1mCYtDSXdms3MzS9nEM67ypTmz4zDkbUTyUohfGSrRd/SZcEh2IJob1Pz34HLpjM2NZYFP6t+Qd+2nCatFTykYdB67IHsmG5c5jSlqcCcazRJM+JYiaGaRU6JPhEP2fLTohTrTHRvqV4ob6t/4yXfZp0pWfD67KOcaI6iauk8UxIfR4p8ys0+aUxIO0dcHNe8iG3fklFU/x9bXvsw8Cn0oZdFX0CXf1Nwb2SUIuM4vx1xoIVr7m2Z2rzkp4RA9Hi16CbqbSZ/tXhN4r3qZ3OZtNHMt+gO6tp8+fDabkHU5XdauQ9I9aPHbQ7k9p9fCIXsBatiiHW1fKqurlki1HdvMHIvTAV3bzzjrbiU3aYzEdEP6k2ZWj+ixcNSqsbhufAqtejJEs3U1L5o5FgPB5flz2GX5fyAvdB1/F8RXhXJOTI+Eo1XPQBe+oqZjq/Tvysel+s5yM8diIMlPPpvNLJivZicUdIgCnwXpH5hZx+VHhUP2n9CFL6ax+pXtC2Uz2SJCwOyd3TRmETs3q5Ra+xxIX2ZmHZMTCvcEu5c6JNecNVX/ZB/UvGCmWkQiV555uzGpg/RHIP1BM/kojivcq3Y/ESe67l6+bQHb3PiemWoRydAHNrNG3U/S74f0RWbyYRjf4x4JuvGFJPvV7Q9ZsqOIjQ1vsjcrHmcYgh+Fw3vN5MM4qoWj4C14wQsryx9j9ImZRfQxLe9mNmPEPGrpM9HS3zKTDQ5r4ZA9Smf6sg/rXrZkRzHrapazTxtWMVULPg+n2WayweHCdfXZuo7twtuV/zBTLKKV18sfZXu99fGKHnzOTDI4IBw14U4uSue/Vv6wZCZZRDFovGzF949wmyj/Am5vNJMPCkfzX/BR3Wv+3V07zBSLaIe+mv7v7tUsqPoeMJNCwlED7hVFafAHtcvtRqpFzPBh7UtMlhz5cDybzg3hOtNm13V8r3X4W+jUIoZoctewxu5qFtD8c+hchPkiUeBnra56ghslLGKONVVLmJ3HnQ3XOdTCS71Kt7eq/etQrkXM8d2+jXTzBN0iVUrCJ+9o/6rTyLGISWjGXtm6ScXh+ST8jFbvbuNRHovYpd3fZMM4PpyEZ7V5Gq2vPWOc/TQh19VsEp7ZEdjXJ7fAWkQug51DGRfkQSS8MUlOpdgihmnxNLCgHmgl0XvSnDnWvcUxTpI9nYlMaDBa+PjMS+mpEYsYpjh9ii5zRzUJ/1jmTutDlxjGJtpZgpxC9z5sEAVBeF/mdic9wmoRm4xJv4DugqHD90h4ha7r287OuMT68CVGKUq/kAVU32ZRFJvDs/NnL8yZmZjqGGKeWsQK2QkF9BgydetP07khHOafRivfWZo325qtxxj0EKIn2LUDjl+h83ALJxZPyp6RkJdUbJ5aRDsjUyey87IuYw4p/sB96geEowY8g1ZedlPRY7QAnUWUQ2vQXTfyQQVj92q4PXBH6qEtnGZyc9MdQ/QbRj9kde1RznWjFgbi5ZR2jN23mkkGRwqvxb9zJg75ZcK03JvNVIto44oz/8jGZ14qyzzuJrTuw9aFO0w4gQIr0bXPn3HWPPbzodeZqRbRAj1fVjr8tvCDhe+byQc4SjiBgovxggd+U/hn43kli+hgau4NxkOFcDcPDo/5FOkJnx7VNO0RdPP3r615nr1TdcrryVj0IzPROC9GjwzZ90H238zkozihcAI/4DZEz3zT/J/Ai1vvk1VdCWVYRAQOKYHdUvTX4Oi0yfQAyfWQ/Voo59j8qHAC0qdquvZqs7smcWXFY44dbf22UKBFL4Bk9tuRC3zxtpT9du64GrI/N7OOS4+EE5A+HOFJdPFXWl38wPPrgvmsZNjvWFALrJIE21zIbjazTkiPhYfBuH47id/jrlJX7XjSXt76o5XKog8pTp/CZoy4S01z5vi5IN0B0b1aXanXwglIp90J/o7WfsXXzesYLcpnPZPWv+QmFbHLhv8+OCb9Ahta9Rq06jshu9fLXZ6U8DAQfxXG9ge5yM/56IcVbH3dK6zVu8fMtegLMpzDjJUYJ2f/inmV7m/iuOsvEE0L850UpyQ8DM3kFS34kCTaMj/bvYZ9Uv8Gq+v83sy1OBloQf0pQ2cF6BOzgOr/wSbKD0D0y2b2SdMnwsOgxd+qaIF5Nm4fvbVlA/u04S22reUTM9eiJ4wdXMIuyr5GKUybIPkU91Y7dy6GaOOrzb6gT4WHoa4e0VyM8dPafc3K5sZ3pc2NZWxPd48WC/zJMTRxpLHO2s+yrgjGyyk0Rq/FGL0EoteaRfqMfhEeBuJHIZoV1Py3yDwua1f7FmXrvg1SZesmdPm9Xhc2pqD7Dmg7jOK0KWpu8hgeVP21kigvRxbtiLAzVKrv6VfhhwL50xFdC/mXQ35Kp79Vq2j7QqyAfNoSI9Z3S0hzZBuCaduLwkHn6WjJAuY9Taqmfihz+78geb1ZtF85bcIPBZO8cQglXYG2mQnyoHPQ9YsNuKyjzW7CFQBzAbN0dGLnDmM3I7obeOSgiWpmfB5XNUXBTPsL/O1r4+XkdyH5tG/fNCDCDwV/vEzycVjiUbqudtkS83Cpp1fv3yLQXmWhjelC8V5PXehFEYUQ2rwuvG+Zk/Yuy1fykouMxZE8wa5KkYtldsH5Pio2bVw3oM/xDbjwI0HXn4M3pQSVYHxA9Y5F4y/AEJBGeWghOiqBQMtYUAUwAioFVQif0r/bgdI2VBmQGdqMjuI82plIHewcxmmBW8KveFvQM+1E2S9xutkUHFFjVcQJPxaoBImIjL1HEQrRLZ6jM320g7uGiCI3nprBeKjjDdeNvUVVt0j7oPlVj7Ef2sF9SA/GxJH7jdJ9YAf2HqWYuzTaexTdMxqpZLxX1C0HNF8dZtK7MMnagt/hW0gN7z0a8ZuvRYXwE4HKMAIRVQSqFMbOwhQCqictoAZSdUFLFhl3CQJLFBh3coG7RIE7dBTSdc2t0g7DTPEwnXVqTHUjvx2XRG12ybUPErsgs4tiFO/AMe0sXI3jKIWx/wN4Zvc84klpVQAAAABJRU5ErkJggg==;strokeWidth=8;imageBorder=none;fontColor=default;" vertex="1" parent="1">
          <mxGeometry x="712" y="112.06" width="110" height="55.89" as="geometry" />
        </mxCell>
        <mxCell id="1gENSLPEwYm4UhBjL6Qf-29" value="" style="endArrow=classic;html=1;rounded=0;exitX=0;exitY=0.5;exitDx=0;exitDy=0;strokeColor=#68B92E;entryX=1;entryY=0.5;entryDx=0;entryDy=0;" edge="1" parent="1" source="1gENSLPEwYm4UhBjL6Qf-28" target="1gENSLPEwYm4UhBjL6Qf-5">
          <mxGeometry width="50" height="50" relative="1" as="geometry">
            <mxPoint x="572" y="330" as="sourcePoint" />
            <mxPoint x="572" y="140" as="targetPoint" />
          </mxGeometry>
        </mxCell>
        <mxCell id="1gENSLPEwYm4UhBjL6Qf-30" value="&lt;font color=&quot;#ffffff&quot;&gt;Report Beat&lt;/font&gt;" style="text;html=1;strokeColor=none;fillColor=none;align=center;verticalAlign=middle;whiteSpace=wrap;rounded=0;" vertex="1" parent="1">
          <mxGeometry x="737" y="125.00999999999999" width="60" height="30" as="geometry" />
        </mxCell>
        <mxCell id="1gENSLPEwYm4UhBjL6Qf-31" value="&lt;font size=&quot;1&quot; color=&quot;#68b92e&quot;&gt;&lt;b style=&quot;font-size: 14px;&quot;&gt;定时报表&lt;/b&gt;&lt;/font&gt;" style="text;html=1;strokeColor=none;fillColor=none;align=center;verticalAlign=middle;whiteSpace=wrap;rounded=0;fontColor=#FFFFFF;" vertex="1" parent="1">
          <mxGeometry x="642" y="143.51" width="60" height="30" as="geometry" />
        </mxCell>
        <mxCell id="1gENSLPEwYm4UhBjL6Qf-32" value="&lt;b&gt;手动触发&lt;/b&gt;" style="text;html=1;strokeColor=none;fillColor=none;align=center;verticalAlign=middle;whiteSpace=wrap;rounded=0;fontSize=14;fontColor=#68B92E;" vertex="1" parent="1">
          <mxGeometry x="462" y="143.51" width="60" height="30" as="geometry" />
        </mxCell>
        <mxCell id="1gENSLPEwYm4UhBjL6Qf-35" value="Report Worker&amp;nbsp;&lt;br&gt;Daily" style="ellipse;whiteSpace=wrap;html=1;aspect=fixed;shadow=0;dashed=0;labelBackgroundColor=none;sketch=0;fontFamily=Helvetica;fontSize=14;fontColor=#FFFFFF;strokeColor=#FFFFFF;fillColor=#68B92E;gradientColor=none;" vertex="1" parent="1">
          <mxGeometry x="397" y="300" width="101.2" height="101.2" as="geometry" />
        </mxCell>
        <mxCell id="1gENSLPEwYm4UhBjL6Qf-36" value="Report Worker Daily" style="ellipse;whiteSpace=wrap;html=1;aspect=fixed;shadow=0;dashed=0;labelBackgroundColor=none;sketch=0;fontFamily=Helvetica;fontSize=14;fontColor=#FFFFFF;strokeColor=#FFFFFF;fillColor=#68B92E;gradientColor=none;" vertex="1" parent="1">
          <mxGeometry x="397.9999999999999" y="408.95" width="101.2" height="101.2" as="geometry" />
        </mxCell>
        <mxCell id="1gENSLPEwYm4UhBjL6Qf-44" value="" style="rounded=1;whiteSpace=wrap;html=1;shadow=0;labelBackgroundColor=default;sketch=0;fontFamily=Helvetica;fontSize=12;fontColor=#232F3E;strokeColor=#68B92E;fillColor=#FFFFFF;gradientColor=none;strokeWidth=3;" vertex="1" parent="1">
          <mxGeometry x="526" y="270" width="117" height="270" as="geometry" />
        </mxCell>
        <mxCell id="1gENSLPEwYm4UhBjL6Qf-45" value="&lt;b&gt;Deployment&lt;/b&gt;" style="text;html=1;align=center;verticalAlign=middle;resizable=0;points=[];autosize=1;strokeColor=none;fillColor=none;fontSize=14;fontFamily=Helvetica;fontColor=#68B92E;" vertex="1" parent="1">
          <mxGeometry x="534" y="270" width="100" height="30" as="geometry" />
        </mxCell>
        <mxCell id="1gENSLPEwYm4UhBjL6Qf-46" value="Report Worker&amp;nbsp;&lt;br&gt;Weekly" style="ellipse;whiteSpace=wrap;html=1;aspect=fixed;shadow=0;dashed=0;labelBackgroundColor=none;sketch=0;fontFamily=Helvetica;fontSize=14;fontColor=#FFFFFF;strokeColor=#FFFFFF;fillColor=#68B92E;gradientColor=none;" vertex="1" parent="1">
          <mxGeometry x="534" y="300" width="101.2" height="101.2" as="geometry" />
        </mxCell>
        <mxCell id="1gENSLPEwYm4UhBjL6Qf-47" value="Report Worker Weekly" style="ellipse;whiteSpace=wrap;html=1;aspect=fixed;shadow=0;dashed=0;labelBackgroundColor=none;sketch=0;fontFamily=Helvetica;fontSize=14;fontColor=#FFFFFF;strokeColor=#FFFFFF;fillColor=#68B92E;gradientColor=none;" vertex="1" parent="1">
          <mxGeometry x="533.9999999999999" y="408.95" width="101.2" height="101.2" as="geometry" />
        </mxCell>
        <mxCell id="1gENSLPEwYm4UhBjL6Qf-48" value="" style="rounded=1;whiteSpace=wrap;html=1;shadow=0;labelBackgroundColor=default;sketch=0;fontFamily=Helvetica;fontSize=12;fontColor=#232F3E;strokeColor=#68B92E;fillColor=#FFFFFF;gradientColor=none;strokeWidth=3;" vertex="1" parent="1">
          <mxGeometry x="662" y="270" width="117" height="270" as="geometry" />
        </mxCell>
        <mxCell id="1gENSLPEwYm4UhBjL6Qf-49" value="&lt;b&gt;Deployment&lt;/b&gt;" style="text;html=1;align=center;verticalAlign=middle;resizable=0;points=[];autosize=1;strokeColor=none;fillColor=none;fontSize=14;fontFamily=Helvetica;fontColor=#68B92E;" vertex="1" parent="1">
          <mxGeometry x="672" y="270" width="100" height="30" as="geometry" />
        </mxCell>
        <mxCell id="1gENSLPEwYm4UhBjL6Qf-50" value="Report Worker&amp;nbsp;&lt;br&gt;Monthly" style="ellipse;whiteSpace=wrap;html=1;aspect=fixed;shadow=0;dashed=0;labelBackgroundColor=none;sketch=0;fontFamily=Helvetica;fontSize=14;fontColor=#FFFFFF;strokeColor=#FFFFFF;fillColor=#68B92E;gradientColor=none;" vertex="1" parent="1">
          <mxGeometry x="670" y="300" width="101.2" height="101.2" as="geometry" />
        </mxCell>
        <mxCell id="1gENSLPEwYm4UhBjL6Qf-51" value="Report Worker Monthly" style="ellipse;whiteSpace=wrap;html=1;aspect=fixed;shadow=0;dashed=0;labelBackgroundColor=none;sketch=0;fontFamily=Helvetica;fontSize=14;fontColor=#FFFFFF;strokeColor=#FFFFFF;fillColor=#68B92E;gradientColor=none;" vertex="1" parent="1">
          <mxGeometry x="669.9999999999999" y="408.95" width="101.2" height="101.2" as="geometry" />
        </mxCell>
        <mxCell id="1gENSLPEwYm4UhBjL6Qf-52" value="" style="endArrow=classic;html=1;rounded=0;fontSize=14;fontColor=#FFFFFF;strokeColor=#68B92E;exitX=0.5;exitY=1;exitDx=0;exitDy=0;startArrow=none;" edge="1" parent="1" source="1gENSLPEwYm4UhBjL6Qf-58" target="1gENSLPEwYm4UhBjL6Qf-44">
          <mxGeometry width="50" height="50" relative="1" as="geometry">
            <mxPoint x="560" y="510" as="sourcePoint" />
            <mxPoint x="610" y="460" as="targetPoint" />
          </mxGeometry>
        </mxCell>
        <mxCell id="1gENSLPEwYm4UhBjL6Qf-53" value="" style="endArrow=classic;html=1;rounded=0;fontSize=14;fontColor=#FFFFFF;strokeColor=#68B92E;exitX=0.5;exitY=1;exitDx=0;exitDy=0;entryX=0.5;entryY=0;entryDx=0;entryDy=0;" edge="1" parent="1" source="1gENSLPEwYm4UhBjL6Qf-5" target="1gENSLPEwYm4UhBjL6Qf-48">
          <mxGeometry width="50" height="50" relative="1" as="geometry">
            <mxPoint x="560" y="510" as="sourcePoint" />
            <mxPoint x="610" y="460" as="targetPoint" />
          </mxGeometry>
        </mxCell>
        <mxCell id="1gENSLPEwYm4UhBjL6Qf-54" value="" style="endArrow=classic;html=1;rounded=0;fontSize=14;fontColor=#FFFFFF;strokeColor=#68B92E;exitX=0.5;exitY=1;exitDx=0;exitDy=0;entryX=0.5;entryY=0;entryDx=0;entryDy=0;" edge="1" parent="1" source="1gENSLPEwYm4UhBjL6Qf-44" target="1gENSLPEwYm4UhBjL6Qf-26">
          <mxGeometry width="50" height="50" relative="1" as="geometry">
            <mxPoint x="560" y="510" as="sourcePoint" />
            <mxPoint x="610" y="460" as="targetPoint" />
          </mxGeometry>
        </mxCell>
        <mxCell id="1gENSLPEwYm4UhBjL6Qf-55" value="" style="endArrow=classic;html=1;rounded=0;fontSize=14;fontColor=#FFFFFF;strokeColor=#68B92E;exitX=0.5;exitY=1;exitDx=0;exitDy=0;entryX=0.5;entryY=0;entryDx=0;entryDy=0;" edge="1" parent="1" source="1gENSLPEwYm4UhBjL6Qf-48" target="1gENSLPEwYm4UhBjL6Qf-26">
          <mxGeometry width="50" height="50" relative="1" as="geometry">
            <mxPoint x="560" y="510" as="sourcePoint" />
            <mxPoint x="610" y="460" as="targetPoint" />
          </mxGeometry>
        </mxCell>
        <mxCell id="1gENSLPEwYm4UhBjL6Qf-56" value="&lt;font color=&quot;#68b92e&quot;&gt;&lt;b&gt;Daily Queue&lt;/b&gt;&lt;br&gt;&lt;/font&gt;" style="text;html=1;strokeColor=none;fillColor=none;align=center;verticalAlign=middle;whiteSpace=wrap;rounded=0;labelBackgroundColor=none;fontSize=14;fontColor=#FFFFFF;" vertex="1" parent="1">
          <mxGeometry x="447" y="210" width="60" height="30" as="geometry" />
        </mxCell>
        <mxCell id="1gENSLPEwYm4UhBjL6Qf-58" value="&lt;font color=&quot;#68b92e&quot;&gt;&lt;b&gt;Weekly Queue&lt;/b&gt;&lt;br&gt;&lt;/font&gt;" style="text;html=1;strokeColor=none;fillColor=none;align=center;verticalAlign=middle;whiteSpace=wrap;rounded=0;labelBackgroundColor=none;fontSize=14;fontColor=#FFFFFF;" vertex="1" parent="1">
          <mxGeometry x="551" y="210" width="60" height="30" as="geometry" />
        </mxCell>
        <mxCell id="1gENSLPEwYm4UhBjL6Qf-59" value="" style="endArrow=none;html=1;rounded=0;fontSize=14;fontColor=#FFFFFF;strokeColor=#68B92E;exitX=0.5;exitY=1;exitDx=0;exitDy=0;" edge="1" parent="1" source="1gENSLPEwYm4UhBjL6Qf-5" target="1gENSLPEwYm4UhBjL6Qf-58">
          <mxGeometry width="50" height="50" relative="1" as="geometry">
            <mxPoint x="582.25" y="173.51" as="sourcePoint" />
            <mxPoint x="583.2171997861583" y="270" as="targetPoint" />
          </mxGeometry>
        </mxCell>
        <mxCell id="1gENSLPEwYm4UhBjL6Qf-60" value="&lt;font color=&quot;#68b92e&quot;&gt;&lt;b&gt;Monthly&lt;br&gt;Queue&lt;/b&gt;&lt;br&gt;&lt;/font&gt;" style="text;html=1;strokeColor=none;fillColor=none;align=center;verticalAlign=middle;whiteSpace=wrap;rounded=0;labelBackgroundColor=none;fontSize=14;fontColor=#FFFFFF;" vertex="1" parent="1">
          <mxGeometry x="662" y="210" width="60" height="30" as="geometry" />
        </mxCell>
        <mxCell id="1gENSLPEwYm4UhBjL6Qf-61" value="&lt;b style=&quot;font-size: 20px;&quot;&gt;...&lt;/b&gt;" style="text;html=1;strokeColor=none;fillColor=none;align=center;verticalAlign=middle;whiteSpace=wrap;rounded=0;labelBackgroundColor=none;fontSize=20;fontColor=#68B92E;" vertex="1" parent="1">
          <mxGeometry x="419" y="500" width="60" height="30" as="geometry" />
        </mxCell>
        <mxCell id="1gENSLPEwYm4UhBjL6Qf-62" value="&lt;b style=&quot;font-size: 20px;&quot;&gt;...&lt;/b&gt;" style="text;html=1;strokeColor=none;fillColor=none;align=center;verticalAlign=middle;whiteSpace=wrap;rounded=0;labelBackgroundColor=none;fontSize=20;fontColor=#68B92E;" vertex="1" parent="1">
          <mxGeometry x="554" y="500" width="60" height="30" as="geometry" />
        </mxCell>
        <mxCell id="1gENSLPEwYm4UhBjL6Qf-63" value="&lt;b style=&quot;font-size: 20px;&quot;&gt;...&lt;/b&gt;" style="text;html=1;strokeColor=none;fillColor=none;align=center;verticalAlign=middle;whiteSpace=wrap;rounded=0;labelBackgroundColor=none;fontSize=20;fontColor=#68B92E;" vertex="1" parent="1">
          <mxGeometry x="692" y="500" width="60" height="30" as="geometry" />
        </mxCell>
      </root>
    </mxGraphModel>
  </diagram>
</mxfile>
